<svg xmlns="http://www.w3.org/2000/svg" viewBox="100 100 1850 1530" width="1850" height="1530">
  <defs>
    <linearGradient id="cogGrad" x1="0%" y1="0%" x2="0%" y2="100%">
      <stop offset="0%" stop-color="#3aa9d6"/>
      <stop offset="55%" stop-color="#1577a3"/>
      <stop offset="100%" stop-color="#04425f"/>
    </linearGradient>
    <linearGradient id="brainGrad" x1="0%" y1="0%" x2="0%" y2="100%">
      <stop offset="0%" stop-color="#8ee87a"/>
      <stop offset="55%" stop-color="#3fbf3f"/>
      <stop offset="100%" stop-color="#1d7a1d"/>
    </linearGradient>
  </defs>
  <g>
    <path stroke="#ffffff" stroke-width="14" stroke-linejoin="round" fill="url(#cogGrad)" d="M 1011.59 166.478 C 1032.68 166.272 1082.48 166.786 1103.05 170.538 C 1108.69 207.704 1117.23 252.815 1124.16 289.827 C 1153.97 294.477 1215.06 309.88 1242.19 322.502 C 1263.94 293.648 1295.6 257.237 1319.5 229.469 C 1346.21 239.461 1433.66 288.086 1453.96 307.322 C 1450.81 320.228 1441.02 344.932 1436.2 357.831 C 1428.53 378.309 1420.58 400.529 1412.03 420.528 C 1447.52 451.16 1465.51 472.238 1496.1 505.953 C 1505.4 501.644 1531.09 493.155 1541.63 489.497 C 1564.18 481.673 1591.38 470.553 1613.96 464.579 C 1635.19 491.098 1677.4 563.94 1688.93 595.63 C 1658.36 620.46 1620.51 649.686 1591.62 675.57 C 1604.49 717.333 1612.13 740.558 1620.41 784.361 C 1630.58 786.88 1646.06 789.176 1656.82 791.186 L 1743.58 806.983 C 1745.06 813.881 1745.36 821.633 1746.08 828.686 C 1750.42 871.773 1747.93 913.785 1744.4 956.764 C 1736.8 959.06 1713.91 962.511 1704.94 964.101 C 1676.69 968.984 1648.47 974.079 1620.29 979.387 C 1611.32 1025.38 1607.16 1044.19 1590.98 1089.03 C 1623.8 1115.36 1656.4 1141.95 1688.79 1168.8 C 1667.16 1217.84 1644.62 1256.26 1614.19 1300.01 C 1608.89 1298.61 1602.66 1296.51 1597.48 1294.62 C 1564.07 1282.44 1529.25 1271.93 1496.27 1258.71 C 1468.82 1291.06 1444.26 1315.5 1412.15 1343.39 C 1422.81 1378.33 1440.89 1423.09 1454 1458.02 C 1406.44 1489.62 1371.55 1511.93 1319.46 1537.62 C 1293.77 1505.52 1267.55 1473.85 1240.82 1442.61 C 1198.81 1459.24 1167.26 1466.37 1123.78 1475.82 C 1116.27 1513.65 1110.43 1555.34 1103.46 1593.78 C 1088.56 1596.67 1050.85 1597.59 1035.1 1597.97 C 1004 1598.15 975.435 1596.51 944.517 1594.51 C 940.687 1558.73 931.162 1512.26 925.544 1475.24 C 880.166 1467.27 850.599 1458.71 807.918 1442.83 C 785.008 1470.17 750.547 1509.32 730.467 1537.34 C 703.208 1525.86 615.017 1476.13 594.909 1456.98 C 608.207 1420.29 622.669 1380.61 636.895 1344.42 C 628.432 1335.96 617.865 1327.2 608.867 1318.47 C 589.309 1299.48 570.784 1279.45 553.372 1258.47 C 515.245 1269.85 473.906 1287.97 435.165 1300.21 C 412.253 1271.21 372.659 1202.59 359.819 1168.39 C 392.125 1143.17 424.873 1115.1 457.457 1089.27 C 445.843 1063.04 432.166 1007.06 427.688 978.745 C 387.473 972.894 345.331 963.231 304.603 956.659 C 298.252 903.029 297.281 861.145 304.57 807.303 L 428.457 784.43 C 434.162 747.045 443.982 710.405 457.737 675.178 C 424.798 648.807 392.033 622.218 359.446 595.412 C 372.614 562.494 412.143 491.338 435.097 464.076 C 473.643 476.852 513.721 492.412 552.364 505.941 C 575.095 477.343 607.805 444.047 636.437 421.358 C 633.872 415.389 631.095 408.017 628.991 401.883 C 618.252 370.576 603.354 338.716 593.782 307.192 C 625.81 281.17 691.486 245.647 728.969 229.14 C 738.348 239.39 750.679 255.401 759.899 266.58 C 774.95 284.829 791.838 304.149 806.066 322.779 C 837.509 308.274 890.121 296.519 924.27 289.92 C 931.457 250.137 938.381 210.306 945.04 170.431 C 966.154 167.996 990.35 166.998 1011.59 166.478 z M 1044.48 1326.33 C 1289.74 1315.11 1479.45 1107.16 1468.18 861.902 C 1456.9 616.642 1248.91 426.976 1003.65 438.306 C 758.474 449.632 568.882 657.542 580.153 902.724 C 591.424 1147.91 799.291 1337.55 1044.48 1326.33 z"/>
    <path stroke="#ffffff" stroke-width="10" stroke-linejoin="round" fill="url(#brainGrad)" d="M 1024.64 605.444 C 1065.95 544.14 1162.05 550.977 1196.89 614.695 C 1201.51 623.156 1203.75 628.939 1206.8 638.171 C 1262.58 640.209 1302.84 677.946 1308.7 734.494 C 1310.35 750.42 1306.93 764.148 1302.49 779.382 C 1314.73 787.749 1323.9 796.379 1332.79 808.284 C 1353.12 834.979 1361.67 868.817 1356.46 901.965 C 1350.99 938.399 1331.09 964.175 1302.09 985.332 C 1314.14 1024.06 1310.14 1061.46 1282.69 1092.8 C 1260.3 1118.36 1237.16 1126.06 1204.13 1128.53 C 1191.7 1171.99 1160.67 1195.03 1116.68 1200.94 C 1077.65 1201.75 1047.1 1189.6 1024.17 1157.24 C 1013.21 1175.43 993.165 1190.1 972.98 1196.12 C 914.663 1213.49 862.905 1185.84 844.215 1128.94 C 832.865 1127.94 821.168 1126.97 810.365 1123.14 C 753.114 1102.83 727.094 1042.83 746.117 986.442 C 673.847 935.934 670.114 827.667 745.793 779.617 C 743.192 770.093 741.218 762.864 740.098 752.958 C 737.191 725.211 745.405 697.442 762.938 675.74 C 783.68 650.012 810.546 640.612 842.129 637.355 C 855.671 594.366 886.035 569.472 930.614 563.352 C 965.914 557.774 1003.65 577.71 1024.64 605.444 z M 1041.59 984.61 C 1042.59 1011.67 1041.41 1039.63 1041.79 1066.74 C 1042 1081.97 1040.55 1102.89 1044.3 1117.21 C 1047.58 1129.28 1054.13 1140.21 1063.24 1148.78 C 1088.52 1172.36 1131.54 1171.75 1154.85 1145.37 C 1160.77 1138.6 1165.33 1130.76 1168.3 1122.27 C 1124.71 1104.04 1102.05 1072.96 1097.77 1026.12 C 1110.19 1026.18 1121.78 1024.88 1133.5 1024.92 C 1134.85 1032.96 1135.86 1039.44 1138.78 1047.04 C 1159.66 1101.25 1228.34 1108.9 1261.44 1061.38 C 1271.56 1047.03 1275.58 1029.26 1272.63 1011.95 C 1272.05 1008.68 1271.13 1005.1 1270.42 1001.76 C 1257.31 1006.13 1197.2 1022.99 1192.35 1001.13 C 1187.71 980.234 1191.11 949.193 1190.29 927.286 C 1190.06 921.094 1191.08 912.553 1189.36 907.583 L 1183.82 907.165 C 1161.18 907.151 1129.66 908.036 1107.64 906.836 C 1102.49 903.633 1096.68 899.949 1095.74 893.494 C 1094.09 882.149 1094.68 867.595 1094.7 856.011 L 1094.88 788.178 C 1106.2 788.095 1119.75 788.303 1130.87 787.608 C 1130.51 813.415 1129.93 846.484 1130.47 872.08 C 1155.99 871.91 1182.26 870.794 1207.64 871.883 C 1231.64 872.913 1226.11 905.893 1225.93 921.909 C 1225.81 939.988 1225.85 958.067 1226.04 976.145 C 1282.7 967.197 1331.21 929.694 1320.72 867.148 C 1316.59 843.816 1303.39 823.07 1284 809.451 C 1257.82 791.15 1225.4 786.492 1194.18 787.017 L 1194.13 753.144 C 1226.19 752.903 1239.34 754.005 1271.05 762.48 C 1276.09 743.866 1273.44 724.009 1263.69 707.368 C 1254.33 691.515 1239.76 679.657 1221.78 675.144 C 1203.56 670.497 1184.24 673.361 1168.15 683.093 C 1143.21 698.129 1134.46 721.114 1131.48 748.849 C 1119.72 748.47 1108.56 748.614 1096.79 748.769 C 1100.25 698.835 1121.33 659.597 1171.04 643.111 C 1153.39 608.424 1135.23 597.054 1096.08 599.234 C 1041.89 611.428 1041.75 650.421 1041.73 696.32 L 1041.78 758.044 L 1042.03 948.886 C 1077.76 948.538 1113.49 948.566 1149.21 948.971 C 1149.4 960.662 1149.38 972.355 1149.16 984.046 C 1113.56 984.371 1076.98 983.672 1041.59 984.61 z M 777.448 1002.29 C 767.58 1051 795.112 1089.61 845.193 1093.06 C 851.402 1061.67 870.434 1039.12 898.975 1024.85 C 916.715 1015.97 932.58 1014.52 952.127 1014.08 C 951.831 1025.64 951.976 1037.92 951.921 1049.54 C 946.658 1049.61 941.319 1049.79 936.106 1050.49 C 891.619 1056.53 857.49 1107.56 893.438 1145.71 C 905.395 1158.37 921.984 1165.64 939.401 1165.83 C 957.385 1166.03 974.706 1159.05 987.539 1146.45 C 996.61 1137.45 1002.61 1125.81 1004.7 1113.2 C 1006.81 1101.03 1006.03 1084.3 1005.96 1071.61 L 1005.86 1018.9 L 1005.91 816.183 C 973.08 815.93 931.321 815.231 898.716 816.869 C 898.317 805.135 898.358 792.757 898.227 780.965 L 1006.1 780.734 L 1006.07 716.151 C 1006.1 696.525 1008.49 656.338 1001.29 639.723 C 976.082 581.501 902.335 586.327 877.455 641.913 C 922.193 658.476 945.352 693.874 950.332 740.217 C 938.616 740.232 926.9 740.395 915.189 740.706 C 913.935 734.718 912.885 728.609 911.006 722.784 C 898.904 685.258 859.25 664.343 821.688 677.094 C 804.098 682.98 789.615 695.695 781.501 712.375 C 773.473 728.706 772.489 744.958 778.44 762.056 C 794.942 757.173 810.741 753.867 827.89 752.591 C 863.943 749.909 857.736 771.317 857.66 796.788 C 857.593 816.974 857.671 837.161 857.893 857.346 C 882.331 856.232 910.404 857.393 934.914 858.084 C 958.85 858.759 953.142 890.526 953.184 907.989 L 953.224 976.116 L 917.603 976.118 C 917.42 961.352 917.737 946.178 917.657 931.34 C 917.594 919.651 917.053 904.387 917.804 893.044 C 892.553 892.547 860.058 894.466 835.008 891.526 C 829.063 890.829 825.052 883.909 822.171 879.059 C 821.417 849.685 821.947 818.187 821.928 788.653 C 796.261 793.712 773.682 799.375 754.166 817.895 C 737.05 833.853 727.146 856.075 726.724 879.472 C 726.056 903.688 735.168 927.153 752.004 944.571 C 779.743 973.004 816.842 976.125 853.96 976.695 L 853.918 1001.82 C 854.056 1004.99 854.66 1009.16 853.256 1011.76 C 845.048 1013.04 827.71 1011.46 818.802 1010.69 C 802.642 1009.24 792.731 1006.66 777.448 1002.29 z"/>
  </g>
</svg>
